#!OML:ASF E:\Steps\Project 1\Capture day 1\Session 2\Subject.ASF
:FULLY-SPECIFIED
:DEGREES
32
root 9.23137 16.3957 19.1783 -151.566 -2.41951 -180.199
lowerback -24.794 -1.71714 -5.77852
upperback -2.05458 -1.18703 -0.354026
thorax 11.6675 -1.07307 2.46634
lowerneck -2.17393 -5.32726 -4.76518
upperneck -7.2834 -7.12238 11.9289
head -1.31009 -3.90922 4.82611
rclavicle 2.06736e-014 4.29375e-014
rhumerus -35.9903 -14.3195 -78.6294
rradius 24.1134
rwrist 6.63835
rhand -8.65425 -48.5611
rfingers 7.12502
rthumb 17.2792 -77.813
lclavicle 2.06736e-014 4.29375e-014
lhumerus -29.8001 -10.7512 83.2783
lradius 22.8568
lwrist -6.24436
lhand -22.4163 -15.1741
lfingers 7.12502
lthumb 4.00674 14.768
rfemur -27.2776 10.3636 15.3213
rtibia 5.70198
rfoot -15.6306 -9.7896
rtoes -33.782
lfemur -28.7477 -7.8915 -17.5101
ltibia 9.15116
lfoot -7.72178 3.39715
ltoes -42.2141
33
root 9.23775 16.3986 19.1779 -151.451 -2.44847 -180.129
lowerback -24.6773 -1.73184 -5.76944
upperback -2.05312 -1.2171 -0.308276
thorax 11.6099 -1.08446 2.5048
lowerneck -2.54457 -5.41537 -4.65415
upperneck -7.38175 -7.24921 11.7928
head -1.27332 -3.97261 4.7398
rclavicle 1.14301e-014 -3.49861e-014
rhumerus -36.3615 -13.8916 -78.3735
rradius 24.0811
rwrist 6.60481
rhand -8.7097 -49.1401
rfingers 7.12502
rthumb 17.2259 -78.3966
lclavicle 1.14301e-014 -3.49861e-014
lhumerus -30.2151 -11.0244 83.0587
lradius 22.8966
lwrist -6.08042
lhand -22.287 -15.4267
lfingers 7.12502
lthumb 4.13163 14.5129
rfemur -27.3946 10.5797 15.361
rtibia 5.65938
rfoot -15.5766 -10.0018
rtoes -33.4757
lfemur -28.936 -7.78719 -17.4065
ltibia 9.28618
lfoot -7.79929 3.3899
ltoes -43.3551
34
root 9.24368 16.4006 19.1785 -151.286 -2.48149 -179.965
lowerback -24.7415 -1.71642 -5.67367
upperback -2.03786 -1.22276 -0.246116
thorax 11.6626 -1.08431 2.51717
lowerneck -2.34637 -5.36035 -4.65201
upperneck -7.38697 -7.16849 11.7616
head -1.31939 -3.93262 4.73861
rclavicle 2.98177e-015 1.43125e-014
rhumerus -36.7431 -13.5274 -78.0881
rradius 23.9816
rwrist 6.5967
rhand -8.66085 -49.588
rfingers 7.12502
rthumb 17.2729 -78.8404
lclavicle 2.98177e-015 1.43125e-014
lhumerus -30.7073 -11.467 82.8789
lradius 23.0575
lwrist -5.94637
lhand -21.8987 -15.1581
lfingers 7.12502
lthumb 4.50661 14.7739
rfemur -27.5799 10.8015 15.4901
rtibia 5.62786
rfoot -15.5584 -10.1236
rtoes -33.0955
lfemur -29.1973 -7.64916 -17.1874
ltibia 9.4248
lfoot -7.805 3.42383
ltoes -44.5012
35
root 9.24843 16.4002 19.1768 -151.157 -2.4549 -179.862
lowerback -24.8003 -1.68971 -5.63606
upperback -1.984 -1.18914 -0.207947
thorax 11.754 -1.06783 2.54922
lowerneck -2.4947 -5.37348 -4.55474
upperneck -7.39135 -7.18961 11.6525
head -1.29993 -3.94086 4.6736
rclavicle -9.14409e-015 -2.18663e-014
rhumerus -37.154 -13.1131 -77.8435
rradius 24.1471
rwrist 6.14271
rhand -8.37334 -50.3964
rfingers 7.12502
rthumb 17.5496 -79.6243
lclavicle -9.14409e-015 -2.18663e-014
lhumerus -31.2853 -12.1875 82.8111
lradius 23.4361
lwrist -5.7164
lhand -21.6943 -14.5542
lfingers 7.12502
lthumb 4.70395 15.3735
rfemur -27.736 10.9849 15.5332
rtibia 5.61803
rfoot -15.5379 -10.2122
rtoes -33.2427
lfemur -29.3749 -7.5734 -17.032
ltibia 9.48143
lfoot -7.8419 3.46617
ltoes -44.8837
36
root 9.25209 16.4005 19.1733 -151.084 -2.44108 -179.879
lowerback -24.7551 -1.72412 -5.69894
upperback -1.89072 -1.20543 -0.172937
thorax 11.8412 -1.07696 2.61972
lowerneck -2.70277 -5.34617 -4.46125
upperneck -7.428 -7.15705 11.4936
head -1.28708 -3.92163 4.59143
rclavicle 1.53064e-014 8.34896e-015
rhumerus -37.5371 -12.757 -77.5346
rradius 24.3761
rwrist 5.77384
rhand -8.03909 -50.8997
rfingers 7.12502
rthumb 17.8712 -80.0986
lclavicle 1.53064e-014 8.34896e-015
lhumerus -31.7969 -12.4993 82.6389
lradius 23.7329
lwrist -5.7212
lhand -21.6525 -13.9337
lfingers 7.12502
lthumb 4.74432 15.9932
rfemur -27.7666 11.1915 15.433
rtibia 5.51267
rfoot -15.4398 -10.4751
rtoes -33.6504
lfemur -29.4438 -7.6752 -16.9846
ltibia 9.47973
lfoot -7.92002 3.557
ltoes -45.3639
37
root 9.25583 16.4002 19.1678 -151.014 -2.46276 -179.923
lowerback -24.6089 -1.74013 -5.77608
upperback -1.85731 -1.20364 -0.188538
thorax 11.8016 -1.07594 2.64928
lowerneck -2.77763 -5.29722 -4.38241
upperneck -7.32262 -7.09247 11.3556
head -1.25276 -3.8804 4.52119
rclavicle 2.5842e-015 3.97569e-015
rhumerus -38.0405 -12.545 -77.2188
rradius 24.3016
rwrist 6.00909
rhand -8.32162 -50.4048
rfingers 7.12502
rthumb 17.5994 -79.6282
lclavicle 2.5842e-015 3.97569e-015
lhumerus -32.4077 -12.9807 82.4933
lradius 23.9512
lwrist -5.62345
lhand -21.7586 -13.6145
lfingers 7.12502
lthumb 4.64183 16.3147
rfemur -27.7512 11.2965 15.363
rtibia 5.40529
rfoot -15.3947 -10.6791
rtoes -33.872
lfemur -29.5135 -8.03711 -16.8652
ltibia 9.48115
lfoot -7.98326 3.77789
ltoes -44.6917
38
root 9.26112 16.4002 19.1601 -150.998 -2.54606 -179.96
lowerback -24.3863 -1.71631 -5.81966
upperback -1.84486 -1.15966 -0.264592
thorax 11.6903 -1.05049 2.60706
lowerneck -2.86351 -5.3184 -4.27547
upperneck -7.11834 -7.12509 11.2735
head -1.17437 -3.88566 4.4598
rclavicle 1.39149e-015 1.35174e-014
rhumerus -38.6661 -12.1388 -77.0925
rradius 24.3196
rwrist 5.94103
rhand -8.62579 -50.0877
rfingers 7.12502
rthumb 17.3066 -79.3371
lclavicle 1.39149e-015 1.35174e-014
lhumerus -33.1543 -13.976 82.4292
lradius 24.3385
lwrist -4.86648
lhand -21.6608 -13.5805
lfingers 7.12502
lthumb 4.73628 16.3466
rfemur -27.6522 11.3493 15.3574
rtibia 5.30936
rfoot -15.4015 -10.812
rtoes -33.7741
lfemur -29.5745 -8.37433 -16.7508
ltibia 9.59364
lfoot -8.12276 3.98192
ltoes -43.6596
